<svg width="27" height="27" viewBox="0 0 27 27" fill="none" xmlns="http://www.w3.org/2000/svg">
<path d="M8.33592 12.3012C8.33592 12.5907 8.3665 12.8255 8.42002 12.9977C8.48117 13.1699 8.55762 13.3578 8.66466 13.5612C8.70288 13.6239 8.71816 13.6865 8.71816 13.7413C8.71816 13.8195 8.67229 13.8978 8.57291 13.9761L8.09128 14.3048C8.02247 14.3517 7.95367 14.3752 7.89251 14.3752C7.81605 14.3752 7.7396 14.3361 7.66315 14.2656C7.55613 14.1482 7.46439 14.023 7.38794 13.8978C7.31149 13.7647 7.23504 13.616 7.15095 13.436C6.55463 14.1561 5.80543 14.5161 4.90331 14.5161C4.26114 14.5161 3.74893 14.3283 3.37432 13.9526C2.99971 13.5769 2.80859 13.076 2.80859 12.4499C2.80859 11.7846 3.03794 11.2446 3.50429 10.8376C3.97063 10.4306 4.58987 10.2271 5.3773 10.2271C5.63723 10.2271 5.9048 10.2506 6.18767 10.2897C6.47055 10.3289 6.76104 10.3915 7.06685 10.4619V9.89059C7.06685 9.29577 6.94453 8.88097 6.70754 8.63835C6.4629 8.39573 6.05007 8.27832 5.46139 8.27832C5.19383 8.27832 4.91861 8.30963 4.63575 8.38006C4.35288 8.45051 4.07765 8.53661 3.81008 8.64617C3.68776 8.70096 3.59602 8.73227 3.54251 8.74792C3.48899 8.76357 3.45077 8.77139 3.42019 8.77139C3.31315 8.77139 3.25965 8.69313 3.25965 8.52877V8.14528C3.25965 8.02005 3.27493 7.92613 3.31315 7.87134C3.35138 7.81656 3.42019 7.76177 3.52722 7.70699C3.79479 7.56611 4.11587 7.4487 4.49048 7.35478C4.86509 7.25304 5.26263 7.20608 5.68311 7.20608C6.59287 7.20608 7.25797 7.41741 7.6861 7.84003C8.10656 8.26267 8.32063 8.90445 8.32063 9.76537V12.3012H8.33592ZM5.23205 13.4908C5.48434 13.4908 5.74426 13.4439 6.01949 13.3499C6.29471 13.256 6.53935 13.0838 6.74576 12.849C6.86808 12.7003 6.95981 12.536 7.00568 12.3481C7.05155 12.1603 7.08213 11.9333 7.08213 11.6672V11.3385C6.86043 11.2837 6.62344 11.2368 6.3788 11.2055C6.13416 11.1741 5.89717 11.1585 5.66016 11.1585C5.14795 11.1585 4.77335 11.2602 4.52107 11.4716C4.26879 11.6829 4.14647 11.9803 4.14647 12.3716C4.14647 12.7395 4.23819 13.0134 4.42933 13.2012C4.6128 13.3969 4.88039 13.4908 5.23205 13.4908ZM11.371 14.3361C11.2334 14.3361 11.1416 14.3126 11.0805 14.2578C11.0193 14.2109 10.9658 14.1013 10.9199 13.9526L9.12335 7.90265C9.07747 7.74611 9.05455 7.64437 9.05455 7.58958C9.05455 7.46437 9.1157 7.39392 9.23802 7.39392H9.98723C10.1325 7.39392 10.2319 7.41741 10.2854 7.47219C10.3465 7.51915 10.3924 7.62872 10.4383 7.77742L11.7226 12.9586L12.9153 7.77742C12.9535 7.62089 12.9994 7.51915 13.0605 7.47219C13.1217 7.42523 13.2287 7.39392 13.3663 7.39392H13.9779C14.1232 7.39392 14.2226 7.41741 14.2837 7.47219C14.3449 7.51915 14.3984 7.62872 14.429 7.77742L15.6369 13.0212L16.9595 7.77742C17.0053 7.62089 17.0589 7.51915 17.1123 7.47219C17.1736 7.42523 17.273 7.39392 17.4106 7.39392H18.1214C18.2438 7.39392 18.3126 7.45653 18.3126 7.58958C18.3126 7.62872 18.305 7.66785 18.2973 7.71481C18.2898 7.76177 18.2744 7.82438 18.2438 7.91048L16.4014 13.9604C16.3555 14.1169 16.302 14.2187 16.2408 14.2656C16.1797 14.3126 16.0803 14.3439 15.9503 14.3439H15.2929C15.1476 14.3439 15.0482 14.3204 14.9871 14.2656C14.9259 14.2109 14.8724 14.1091 14.8418 13.9526L13.6568 8.90445L12.4795 13.9447C12.4413 14.1013 12.3954 14.203 12.3342 14.2578C12.2731 14.3126 12.166 14.3361 12.0285 14.3361H11.371ZM21.1947 14.5474C20.7973 14.5474 20.3997 14.5004 20.0174 14.4065C19.6352 14.3126 19.3371 14.2109 19.1382 14.0935C19.016 14.023 18.9318 13.9447 18.9013 13.8743C18.8707 13.8039 18.8554 13.7256 18.8554 13.6552V13.256C18.8554 13.0917 18.9166 13.0134 19.0312 13.0134C19.0771 13.0134 19.123 13.0212 19.1688 13.0369C19.2147 13.0525 19.2835 13.0838 19.36 13.1151C19.6198 13.2325 19.9027 13.3264 20.201 13.3891C20.5067 13.4517 20.805 13.483 21.1107 13.483C21.5923 13.483 21.9669 13.3969 22.2269 13.2247C22.4867 13.0525 22.6243 12.8021 22.6243 12.4812C22.6243 12.262 22.5555 12.082 22.4179 11.9333C22.2803 11.7846 22.0205 11.6516 21.6459 11.5263L20.5373 11.1741C19.9792 10.9941 19.5664 10.728 19.3141 10.3758C19.0618 10.0315 18.9318 9.64797 18.9318 9.24099C18.9318 8.91227 19.0006 8.62269 19.1382 8.37224C19.2758 8.12179 19.4594 7.90265 19.6888 7.73046C19.9181 7.55045 20.1781 7.41741 20.4838 7.32349C20.7896 7.22957 21.1107 7.19043 21.447 7.19043C21.6152 7.19043 21.791 7.19825 21.9594 7.22174C22.135 7.24521 22.2957 7.27653 22.4562 7.30782C22.6091 7.34696 22.7544 7.38609 22.892 7.43305C23.0296 7.48001 23.1366 7.52697 23.2131 7.57393C23.3202 7.63654 23.3965 7.69915 23.4424 7.7696C23.4883 7.83221 23.5112 7.9183 23.5112 8.02787V8.39573C23.5112 8.56008 23.4501 8.64617 23.3354 8.64617C23.2742 8.64617 23.1749 8.61486 23.0448 8.55225C22.6091 8.34877 22.1198 8.24702 21.577 8.24702C21.1413 8.24702 20.7973 8.31745 20.5603 8.46616C20.3232 8.61486 20.201 8.84184 20.201 9.16272C20.201 9.38187 20.2774 9.56971 20.4302 9.71841C20.5832 9.86712 20.8661 10.0158 21.2712 10.1489L22.3568 10.5011C22.9072 10.6811 23.3048 10.9315 23.5418 11.2524C23.7787 11.5733 23.8934 11.9411 23.8934 12.3481C23.8934 12.6847 23.8246 12.9899 23.6947 13.256C23.5571 13.5221 23.3736 13.7569 23.1366 13.9447C22.8997 14.1404 22.6168 14.2813 22.288 14.383C21.944 14.4926 21.5846 14.5474 21.1947 14.5474Z" fill="white"/>
<path fill-rule="evenodd" clip-rule="evenodd" d="M22.639 18.3508C20.1238 20.2525 16.4694 21.2621 13.3274 21.2621C8.92384 21.2621 4.95609 19.5951 1.95926 16.8245C1.72226 16.6054 1.93632 16.308 2.21918 16.4801C5.46065 18.4055 9.45899 19.5716 13.5949 19.5716C16.3853 19.5716 19.451 18.9768 22.272 17.7559C22.6924 17.5602 23.0518 18.0376 22.639 18.3508Z" fill="#EA9936"/>
<path fill-rule="evenodd" clip-rule="evenodd" d="M23.686 17.1296C23.3648 16.707 21.5607 16.9261 20.7426 17.0279C20.498 17.0592 20.4597 16.84 20.6815 16.6757C22.1188 15.6426 24.481 15.94 24.7562 16.2844C25.0314 16.6366 24.6797 19.0549 23.3343 20.2133C23.1279 20.3933 22.9292 20.2994 23.0208 20.0647C23.3266 19.2898 24.0071 17.5445 23.686 17.1296Z" fill="#EA9936"/>
</svg>
