<svg width="41" height="41" viewBox="0 0 41 41" fill="none" xmlns="http://www.w3.org/2000/svg">
<path d="M6.36133 10.2354V30.2354C6.36133 30.8984 6.62472 31.5343 7.09356 32.0031C7.5624 32.4719 8.19829 32.7354 8.86133 32.7354H33.8613C34.1928 32.7354 34.5108 32.6037 34.7452 32.3693C34.9797 32.1349 35.1113 31.8169 35.1113 31.4854V13.9854C35.1113 13.6539 34.9797 13.3359 34.7452 13.1014C34.5108 12.867 34.1928 12.7354 33.8613 12.7354H8.86133C8.19829 12.7354 7.5624 12.4719 7.09356 12.0031C6.62472 11.5343 6.36133 10.8984 6.36133 10.2354ZM6.36133 10.2354C6.36133 9.57235 6.62472 8.93644 7.09356 8.46759C7.5624 7.99874 8.19829 7.73535 8.86133 7.73535H30.1113" stroke="#BDB8FF" stroke-width="1.25" stroke-linecap="round" stroke-linejoin="round"/>
<path d="M28.2363 24.6104C29.2718 24.6104 30.1113 23.7709 30.1113 22.7354C30.1113 21.6999 29.2718 20.8604 28.2363 20.8604C27.2008 20.8604 26.3613 21.6999 26.3613 22.7354C26.3613 23.7709 27.2008 24.6104 28.2363 24.6104Z" fill="#BDB8FF"/>
</svg>
