<svg width="41" height="41" viewBox="0 0 41 41" fill="none" xmlns="http://www.w3.org/2000/svg">
<path d="M33.2812 13.9854H8.28125C7.59089 13.9854 7.03125 14.545 7.03125 15.2354V32.7354C7.03125 33.4257 7.59089 33.9854 8.28125 33.9854H33.2812C33.9716 33.9854 34.5312 33.4257 34.5312 32.7354V15.2354C34.5312 14.545 33.9716 13.9854 33.2812 13.9854Z" stroke="#C2B8FF" stroke-width="1.25" stroke-linecap="round" stroke-linejoin="round"/>
<path d="M15.1562 13.9854V8.36035C15.1562 6.86851 15.7489 5.43777 16.8037 4.38288C17.8587 3.32798 19.2894 2.73535 20.7812 2.73535C22.2731 2.73535 23.7038 3.32798 24.7588 4.38288C25.8136 5.43777 26.4062 6.86851 26.4062 8.36035V13.9854" stroke="#C2B8FF" stroke-width="1.25" stroke-linecap="round" stroke-linejoin="round"/>
<path d="M20.7812 25.8604C21.8167 25.8604 22.6562 25.0209 22.6562 23.9854C22.6562 22.9499 21.8167 22.1104 20.7812 22.1104C19.7458 22.1104 18.9062 22.9499 18.9062 23.9854C18.9062 25.0209 19.7458 25.8604 20.7812 25.8604Z" fill="#C2B8FF"/>
</svg>
