<svg width="27" height="27" viewBox="0 0 27 27" fill="none" xmlns="http://www.w3.org/2000/svg">
<path d="M17.5999 9.29099L19.6761 7.21487L19.814 6.34104C16.0312 2.9005 10.0176 3.29107 6.60658 7.15487C5.65906 8.22767 4.95683 9.56578 4.58203 10.9481L5.32531 10.8428L9.47757 10.1585L9.79762 9.83107C11.6442 7.80234 14.7679 7.52965 16.8997 9.2552L17.5999 9.29099Z" fill="#EA4335"/>
<path d="M22.6349 10.8858C22.1579 9.12872 21.1777 7.54847 19.8155 6.33984L16.9013 9.254C18.132 10.2594 18.8321 11.7733 18.8027 13.362V13.879C20.2344 13.879 21.3957 15.0402 21.3957 16.472C21.3957 17.9038 20.2344 19.0366 18.8027 19.0366H13.6092L13.0996 19.5905V22.7014L13.6092 23.19H18.8027C22.5275 23.2194 25.5712 20.2516 25.6006 16.5268C25.6185 14.2685 24.5046 12.1513 22.6349 10.8858Z" fill="#4285F4"/>
<path d="M8.42185 23.1896H13.609V19.0373H8.42185C8.05441 19.0373 7.69225 18.9573 7.35852 18.8047L6.6226 19.03L4.53174 21.1061L4.34961 21.8125C5.52243 22.698 6.95319 23.1959 8.42185 23.1896Z" fill="#34A853"/>
<path d="M8.42222 9.71977C4.69634 9.74188 1.69481 12.7803 1.71692 16.5061C1.72955 18.5864 2.70129 20.5446 4.34998 21.8133L7.35887 18.8045C6.0534 18.2149 5.47332 16.6788 6.06289 15.3733C6.65246 14.0678 8.18849 13.4878 9.49396 14.0773C10.0688 14.3374 10.5299 14.7974 10.79 15.3733L13.7989 12.3644C12.5187 10.6905 10.5289 9.71241 8.42222 9.71977Z" fill="#FBBC05"/>
</svg>
