<svg width="160" height="40" viewBox="0 0 160 40" fill="none" xmlns="http://www.w3.org/2000/svg">
<g clip-path="url(#clip0_1_42291)">
<path d="M64.4203 28.8182C68.4884 28.8182 70.9513 26.1892 70.9513 21.9829C70.9513 17.7488 68.2946 15.2305 64.4203 15.2305C60.4906 15.2305 57.834 17.7488 57.834 21.9829C57.834 26.1892 60.2969 28.8182 64.4203 28.8182ZM64.3927 17.4444C66.9939 17.4444 68.5436 19.1879 68.5436 21.9552C68.5436 24.7502 67.0493 26.6044 64.3927 26.6044C61.7083 26.6044 60.2416 24.7502 60.2416 21.9552C60.2416 19.1879 61.819 17.4444 64.3927 17.4444Z" fill="white"/>
<path d="M74.5638 20.8198C74.5638 18.6612 75.8922 17.4159 78.106 17.4159C80.4584 17.4159 81.2055 19.0487 81.2055 20.8198V28.4854H83.6131V20.211C83.6131 17.4436 82.4509 15.2297 79.1023 15.2297C76.833 15.2297 75.145 16.4197 74.5916 19.0487H74.5638V11.5215H72.1562V28.4854H74.5638V20.8198Z" fill="white"/>
<path d="M91.3038 17.306C93.6837 17.306 94.8737 18.6067 95.0397 20.9036H87.2911C87.6232 18.496 89.0898 17.306 91.3038 17.306ZM91.4145 28.7906C94.7077 28.7906 96.5618 27.1579 97.226 24.6119L94.8693 24.6154C94.357 25.8182 93.4012 26.6874 91.4145 26.6874C88.9515 26.6874 87.4848 25.3037 87.2358 22.7854H97.2536C97.309 22.1766 97.309 21.6508 97.309 21.2356C97.309 17.6934 95.2335 15.2305 91.3868 15.2305C87.4571 15.2305 84.8281 17.8041 84.8281 22.1212C84.8281 26.3553 87.4295 28.7906 91.4145 28.7906Z" fill="white"/>
<path d="M101.224 28.4861V21.6507C101.224 19.1601 102.303 18.2192 104.738 18.2192H105.9V15.5625H105.098C103.023 15.5625 101.805 16.5311 101.279 19.5475H101.224V15.5625H98.8164V28.4861H101.224Z" fill="white"/>
<path d="M112.732 17.306C115.112 17.306 116.302 18.6067 116.468 20.9036H108.719C109.051 18.496 110.518 17.306 112.732 17.306ZM112.842 28.7906C116.136 28.7906 117.99 27.1579 118.654 24.6119H116.299C115.787 25.8165 114.831 26.6874 112.842 26.6874C110.379 26.6874 108.913 25.3037 108.664 22.7854H118.682C118.737 22.1766 118.737 21.6508 118.737 21.2356C118.737 17.6934 116.661 15.2305 112.815 15.2305C108.885 15.2305 106.256 17.8041 106.256 22.1212C106.256 26.3553 108.858 28.7906 112.842 28.7906Z" fill="white"/>
<path d="M122.441 20.8206C122.441 18.662 123.769 17.4167 125.984 17.4167C128.335 17.4167 129.083 19.0495 129.083 20.8206V28.4862H131.491V20.2118C131.491 17.4444 130.329 15.2305 126.98 15.2305C124.71 15.2305 123.023 16.4205 122.469 19.0495H122.441V15.5625H120.033V28.4862H122.441V20.8206Z" fill="white"/>
<path d="M143.094 20.3501H145.525C144.945 17.1123 143.119 15.2305 139.355 15.2305C135.508 15.2305 132.74 17.7488 132.74 22.0106C132.74 26.3553 135.397 28.8182 139.438 28.8182C143.091 28.8182 144.973 26.8534 145.553 23.5879H143.128C142.612 25.32 141.724 26.6044 139.41 26.6044C136.837 26.6044 135.204 24.9163 135.204 22.0382C135.204 18.9664 136.892 17.4444 139.327 17.4444C141.439 17.4444 142.568 18.5468 143.094 20.3501Z" fill="white"/>
<path d="M153.083 17.306C155.463 17.306 156.653 18.6067 156.819 20.9036H149.07C149.403 18.496 150.869 17.306 153.083 17.306ZM153.194 28.7906C156.486 28.7906 158.34 27.1579 159.005 24.6119H156.649C156.138 25.8165 155.182 26.6874 153.194 26.6874C150.731 26.6874 149.264 25.3037 149.015 22.7854H159.033C159.088 22.1766 159.088 21.6508 159.088 21.2356C159.088 17.6934 157.013 15.2305 153.166 15.2305C149.236 15.2305 146.607 17.8041 146.607 22.1212C146.607 26.3553 149.208 28.7906 153.194 28.7906Z" fill="white"/>
<path d="M43.0995 20.2407C43.0995 23.9365 45.128 26.6319 48.8516 26.6319C51.7609 26.6319 53.5217 24.8742 54.1772 22.1335H56.7206C56.053 26.1242 53.1229 28.9383 48.8516 28.9383C43.7664 28.9383 40.543 25.2703 40.543 20.2407C40.543 15.2111 43.8497 11.5986 48.8793 11.5986C53.157 11.5986 56.0102 14.2629 56.7194 18.2291H54.1403C53.4743 15.6057 51.695 13.9329 48.8238 13.9329C45.1558 13.9329 43.0995 16.6838 43.0995 20.2407Z" fill="white"/>
<path d="M31.0543 14.8711H7.02734V15.0507H31.0543V14.8711Z" fill="white"/>
<path d="M21.5341 8.40332H17.4473V8.58296H21.5341V8.40332Z" fill="white"/>
<path d="M5.41016 17.4083V21.4951H5.5898V17.4083H5.41016Z" fill="white"/>
<path d="M29.4824 19.9005V23.9873H29.6621V19.9005H29.4824Z" fill="white"/>
<path d="M18.3446 32.4756H14.2578V32.6552H18.3446V32.4756Z" fill="white"/>
<path d="M11.877 6.56249L11.877 32.835H12.0566L12.0566 6.56249H11.877Z" fill="white"/>
<path d="M17.4473 8.40377V32.6553H17.6269V8.40377H17.4473Z" fill="white"/>
<path d="M28.5835 26.0088H4.01758V26.1884H28.5835V26.0088Z" fill="white"/>
<path d="M29.6617 20.4395H5.41016V20.6191H29.6617V20.4395Z" fill="white"/>
<path d="M23.0156 10.29V32.835H23.1953V10.29H23.0156Z" fill="white"/>
<path fill-rule="evenodd" clip-rule="evenodd" d="M23.0151 27.0859H23.1969C23.6588 29.8392 25.8318 32.0122 28.5851 32.4741V32.6559C25.8318 33.1178 23.6588 35.2908 23.1969 38.0441H23.0151C22.5532 35.2908 20.3802 33.1178 17.627 32.6559V32.4741C20.3802 32.0122 22.5532 29.8392 23.0151 27.0859Z" fill="white"/>
<path fill-rule="evenodd" clip-rule="evenodd" d="M5.40963 20.6191H5.59144C6.05334 23.3724 8.22635 25.5454 10.9796 26.0073V26.1891C8.22635 26.651 6.05334 28.824 5.59144 31.5773H5.40963C4.94771 28.824 2.77471 26.651 0.0214844 26.1891V26.0073C2.77471 25.5454 4.94771 23.3724 5.40963 20.6191Z" fill="white"/>
<path fill-rule="evenodd" clip-rule="evenodd" d="M29.4819 9.48145H29.6637C30.1256 12.2347 32.2986 14.4077 35.0519 14.8696V15.0514C32.2986 15.5133 30.1256 17.6863 29.6637 20.4396H29.4819C29.02 17.6863 26.847 15.5133 24.0938 15.0514V14.8696C26.847 14.4077 29.02 12.2347 29.4819 9.48145Z" fill="white"/>
<path fill-rule="evenodd" clip-rule="evenodd" d="M11.8764 3.01465H12.0583C12.5202 5.76787 14.6932 7.94089 17.4463 8.40279V8.58459C14.6932 9.0465 12.5202 11.2195 12.0583 13.9728H11.8764C11.4145 11.2195 9.24151 9.0465 6.48828 8.58459V8.40279C9.24151 7.94089 11.4145 5.76787 11.8764 3.01465Z" fill="white"/>
<path fill-rule="evenodd" clip-rule="evenodd" d="M23.0486 5.11133H23.1609C23.446 6.81084 24.7874 8.15221 26.4869 8.43734V8.54956C24.7874 8.83469 23.446 10.1761 23.1609 11.8756H23.0486C22.7635 10.1761 21.4222 8.83469 19.7227 8.54956V8.43734C21.4222 8.15221 22.7635 6.81084 23.0486 5.11133Z" fill="white"/>
<path fill-rule="evenodd" clip-rule="evenodd" d="M5.4432 11.5781H5.55544C5.84056 13.2776 7.18193 14.619 8.88144 14.9041V15.0164C7.18193 15.3015 5.84056 16.6429 5.55544 18.3423H5.4432C5.15808 16.6429 3.81671 15.3015 2.11719 15.0164V14.9041C3.81671 14.619 5.15808 13.2776 5.4432 11.5781Z" fill="white"/>
<path fill-rule="evenodd" clip-rule="evenodd" d="M29.5155 22.7158H29.6277C29.9128 24.4153 31.2542 25.7567 32.9538 26.0418V26.1541C31.2542 26.4392 29.9128 27.7805 29.6277 29.48H29.5155C29.2304 27.7805 27.8891 26.4392 26.1895 26.1541V26.0418C27.8891 25.7567 29.2304 24.4153 29.5155 22.7158Z" fill="white"/>
<path fill-rule="evenodd" clip-rule="evenodd" d="M11.912 29.1836H12.0242C12.3093 30.8831 13.6506 32.2244 15.3501 32.5097V32.6218C13.6506 32.907 12.3093 34.2483 12.0242 35.9478H11.912C11.6268 34.2483 10.2855 32.907 8.58594 32.6218V32.5097C10.2855 32.2244 11.6268 30.8831 11.912 29.1836Z" fill="white"/>
</g>
<defs>
<clipPath id="clip0_1_42291">
<rect width="159.957" height="39.47" fill="white" transform="translate(0.0214844 0.269531)"/>
</clipPath>
</defs>
</svg>
